<?xml version="1.0" encoding="utf-8"?><!DOCTYPE svg PUBLIC "-//W3C//DTD SVG 1.1//EN" "http://www.w3.org/Graphics/SVG/1.1/DTD/svg11.dtd"><svg version="1.1" xmlns="http://www.w3.org/2000/svg" xmlns:xlink="http://www.w3.org/1999/xlink" x="0px" y="0px" viewBox="0 0 98.633 100" enable-background="new 0 0 98.633 100" xml:space="preserve"><path fill="#010101" d="M49.317,0.002c-2.378-0.021-4.745,0.132-7.068,0.449c-6.662,0.911-12.965,3.194-18.473,6.477
	c-2.888,1.721-5.561,3.718-7.975,5.92c-2.414,2.203-4.569,4.611-6.44,7.168c-1.917,2.62-3.532,5.388-4.85,8.231
	c-1.319,2.844-2.344,5.76-3.074,8.688c-1.111,4.457-1.548,8.931-1.413,13.231c0.061,1.893,0.231,3.665,0.471,5.307
	c0.25,1.711,0.575,3.279,0.941,4.715c0.366,1.435,0.771,2.731,1.184,3.901c0.825,2.341,1.676,4.165,2.396,5.549
	c0.721,1.385,1.318,2.332,1.712,2.903c0.394,0.572,0.59,0.772,0.585,0.635c-0.005-0.139-0.215-0.617-0.578-1.427
	c-0.362-0.809-0.884-1.953-1.469-3.438c-0.585-1.484-1.236-3.31-1.826-5.485c-0.591-2.176-1.12-4.701-1.419-7.546
	c-0.268-2.535-0.354-5.325-0.143-8.317c0.21-2.992,0.718-6.188,1.641-9.472c0.739-2.633,1.746-5.326,3.06-8.003
	s2.936-5.34,4.893-7.882c1.768-2.298,3.812-4.496,6.127-6.526c2.314-2.03,4.894-3.892,7.71-5.492c2.56-1.455,5.32-2.693,8.231-3.667
	c2.912-0.973,5.979-1.681,9.137-2.054c2.845-0.338,5.768-0.406,8.715-0.193c2.948,0.213,5.918,0.707,8.846,1.505
	C65.799,6.697,71.217,9.312,76,12.955c4.764,3.624,8.904,8.293,11.99,13.673c2.992,5.216,5.005,11.11,5.749,17.225
	c0.706,5.773,0.294,11.76-1.248,17.482c-1.519,5.638-4.141,11.034-7.703,15.742c-3.672,4.845-8.36,8.971-13.667,12.039
	c-4.086,2.62-8.809,4.319-13.68,5.187c-4.761,0.827-9.659,0.862-14.336-0.058c-4.235-0.856-8.301-2.424-11.42-5.028
	c-1.445-1.193-2.703-2.59-3.63-4.144c-0.96-1.592-1.604-3.393-1.912-5.242c-0.124-0.671-0.105-1.466-0.064-2.354
	c0.065-1.151,0.229-2.334,0.435-3.544c0.542-3.174,1.369-6.329,2.275-9.495c1.108-3.862,2.362-7.68,3.673-11.455
	c1.423-4.095,2.922-8.13,4.465-12.11c2.845-7.338,5.806-14.469,8.951-21.298c0.915-1.983,1.818-3.92,2.789-5.777
	c0.314,0.871,0.617,1.758,0.913,2.646c0.51,1.534,0.992,3.067,1.468,4.6c1.223,3.934,2.364,7.821,3.46,11.641
	c1.318,4.59,2.565,9.075,3.752,13.438c1.267,4.656,2.467,9.168,3.589,13.523c1.059,4.114,2.048,8.083,2.944,11.897
	c0.383,1.632,0.754,3.229,1.092,4.8c0.127,0.592,0.246,1.177,0.364,1.756c-0.606-0.957-1.211-1.9-1.826-2.811
	c-1.152-1.704-2.327-3.306-3.523-4.786c-1.641-2.033-3.329-3.845-5.021-5.4c-1.692-1.554-3.392-2.851-5.036-3.915
	c-2.389-1.543-4.661-2.567-6.619-3.216c-1.82-0.604-3.364-0.89-4.551-1.028c-1.187-0.138-2.016-0.13-2.461-0.071
	c-0.499,0.065-0.714,0.162-0.656,0.278c0.058,0.116,0.386,0.255,0.956,0.428c0.57,0.174,1.386,0.39,2.411,0.714
	c1.024,0.324,2.257,0.75,3.644,1.377c1.768,0.797,3.786,1.924,5.899,3.502c1.465,1.091,2.969,2.395,4.472,3.937
	s3.01,3.318,4.486,5.307c1.074,1.451,2.135,3.022,3.182,4.7c0.791,1.269,1.572,2.612,2.382,4.009
	c0.299,0.515,0.604,1.043,0.927,1.583c0.235,0.394,0.493,0.819,0.799,1.264c0.143,0.243,0.434,0.609,0.921,1.055
	c0.11,0.154,0.461,0.349,1.056,0.558c0.632,0.17,1.301,0.038,1.99-0.408c0.539-0.531,0.797-0.908,0.791-1.112
	c0.102-0.319,0.15-0.551,0.157-0.692c0.048-0.459,0.048-0.832,0.029-1.104c-0.047-0.985-0.177-1.915-0.308-2.782
	c-0.191-1.296-0.418-2.592-0.664-3.894c-0.302-1.613-0.635-3.251-0.983-4.907c-0.815-3.875-1.726-7.898-2.711-12.055
	c-1.042-4.395-2.172-8.947-3.373-13.645c-1.125-4.396-2.317-8.923-3.589-13.559c-1.054-3.849-2.158-7.777-3.358-11.776
	c-0.468-1.557-0.952-3.133-1.462-4.715c-0.389-1.206-0.796-2.429-1.249-3.667c-0.167-0.458-0.347-0.928-0.541-1.405
	c-0.143-0.35-0.309-0.731-0.507-1.134c-0.099-0.228-0.287-0.57-0.606-1.013c-0.071-0.13-0.3-0.356-0.686-0.67
	c-0.142-0.122-0.398-0.257-0.77-0.399c-0.322-0.131-0.758-0.172-1.305-0.114c-0.724,0.188-1.138,0.367-1.248,0.521
	C47.035,7.25,46.856,7.41,46.764,7.52c-0.307,0.335-0.518,0.622-0.656,0.835c-0.512,0.746-0.927,1.472-1.291,2.139
	c-1.261,2.291-2.384,4.63-3.473,6.961c-3.236,6.916-6.276,14.13-9.18,21.548c-1.573,4.018-3.101,8.108-4.557,12.275
	c-1.339,3.827-2.625,7.729-3.773,11.719c-0.937,3.241-1.806,6.585-2.404,10.05c-0.229,1.322-0.414,2.694-0.5,4.115
	c-0.073,1.062-0.074,2.236,0.122,3.496c0.408,2.472,1.281,4.882,2.589,7.061c1.273,2.104,2.911,3.939,4.779,5.463
	c4.003,3.239,8.828,5.151,13.702,6.063c5.341,1.024,10.854,0.981,16.184,0.021c5.406-0.955,10.696-2.893,15.385-5.912
	c5.809-3.401,10.932-7.97,14.95-13.367c3.892-5.222,6.738-11.182,8.366-17.439c1.638-6.294,2.042-12.866,1.199-19.244
	c-0.887-6.684-3.144-13.112-6.506-18.816c-3.419-5.798-7.975-10.835-13.267-14.75C73.215,5.878,67.314,3.113,61.207,1.55
	C57.282,0.545,53.281,0.036,49.317,0.002z M68.918,82.169c0.043,0.022,0.062,0.043,0.05,0.051
	C68.958,82.222,68.941,82.197,68.918,82.169z"></path></svg>