<svg id="Capa_1" enable-background="new 0 0 512 512" height="512" viewBox="0 0 512 512" width="512" xmlns="http://www.w3.org/2000/svg">
    <g fill="#F0E542">
        <path d="m451 256c0-107.544-87.58-195-195-195-108.458 0-195 88.477-195 195 0 107.909 88.017 195 195 195 107.54 0 195-87.583 195-195zm-141.973 31.816c-5.859-5.859-15.352-5.859-21.211 0s-5.859 15.352 0 21.211l73.682 73.682c-25.019 20.873-56.275 34.493-90.498 37.6v-104.309c0-8.401-6.599-15-15-15s-15 6.599-15 15v104.309c-34.223-3.107-65.48-16.727-90.498-37.6l73.682-73.682c5.859-5.859 5.859-15.352 0-21.211s-15.352-5.859-21.211 0l-73.682 73.682c-20.873-25.019-34.493-56.275-37.6-90.499h104.309c8.291 0 15-6.709 15-15s-6.709-15-15-15h-104.309c3.107-34.224 16.727-65.48 37.599-90.499l73.682 73.682c5.86 5.859 15.352 5.859 21.211 0s5.859-15.352 0-21.211l-73.682-73.682c25.019-20.872 56.275-34.491 90.499-37.598v104.309c0 8.399 6.599 15 15 15s15-6.601 15-15v-104.309c34.224 3.107 65.48 16.727 90.499 37.599l-73.682 73.682c-5.859 5.859-5.859 15.352 0 21.211 5.86 5.859 15.352 5.859 21.211 0l73.682-73.682c20.873 25.019 34.493 56.275 37.599 90.499h-104.309c-8.291 0-15 6.709-15 15s6.709 15 15 15h104.309c-3.107 34.223-16.727 65.479-37.6 90.499z"/>
        <path d="m271 196v-104.309c34.224 3.107 65.48 16.727 90.499 37.599l-73.682 73.682c-5.859 5.859-5.859 15.352 0 21.211 5.86 5.859 15.352 5.859 21.211 0l73.682-73.682c20.873 25.019 34.493 56.275 37.599 90.499h-104.309c-8.291 0-15 6.709-15 15s6.709 15 15 15h104.309c-3.107 34.223-16.727 65.479-37.6 90.499l-73.682-73.682c-5.859-5.859-15.352-5.859-21.211 0s-5.859 15.352 0 21.211l73.682 73.682c-25.019 20.873-56.275 34.493-90.498 37.6v-104.31c0-8.401-6.599-15-15-15v150c107.54 0 195-87.583 195-195 0-107.544-87.58-195-195-195v150c8.401 0 15-6.601 15-15z" fill="#ff9100" />
        <path d="m256 0c-24.901 0-45 21.099-45 46 0 24.899 20.099 45 45 45s45-20.101 45-45c0-24.901-20.099-46-45-46z"/>
        <path d="m256 421c-24.901 0-45 20.099-45 45 0 24.899 20.099 46 45 46s45-21.101 45-46c0-24.901-20.099-45-45-45z"/>
        <path d="m75.692 139.325c-17.549-17.549-17.549-46.084 0-63.633s46.084-17.549 63.633 0 17.549 46.084 0 63.633c-17.531 17.532-46.084 17.549-63.633 0z"/>
        <path d="m372.675 436.308c-17.549-17.549-17.549-46.084 0-63.633s46.084-17.549 63.633 0 17.549 46.084 0 63.633c-17.532 17.531-46.084 17.549-63.633 0z"/>
        <path d="m46 301c-24.814 0-46-20.186-46-45s21.186-45 46-45 45 20.186 45 45-20.186 45-45 45z"/>
        <path d="m466 301c-24.814 0-45-20.186-45-45s20.186-45 45-45 46 20.186 46 45-21.186 45-46 45z"/>
        <path d="m75.692 436.308c-17.549-17.549-17.549-46.084 0-63.633s46.084-17.549 63.633 0 17.549 46.084 0 63.633c-17.531 17.531-46.084 17.549-63.633 0z"/>
        <path d="m372.675 139.325c-17.549-17.549-17.549-46.084 0-63.633s46.084-17.549 63.633 0 17.549 46.084 0 63.633c-17.532 17.532-46.084 17.549-63.633 0z" />
        <path d="m301 466c0 24.899-20.099 46-45 46v-91c24.901 0 45 20.099 45 45z" />
        <path d="m256 91v-91c24.901 0 45 21.099 45 46 0 24.899-20.099 45-45 45z" />
        <path d="m256 181c-41.4 0-75 33.6-75 75s33.6 75 75 75 75-33.6 75-75-33.6-75-75-75z"/>
        <path d="m331 256c0 41.4-33.6 75-75 75v-150c41.4 0 75 33.6 75 75z"/>
        <path d="m301 256c0 24.899-20.099 45-45 45s-45-20.101-45-45c0-24.901 20.099-45 45-45s45 20.099 45 45z"/>
        <path d="m256 301v-90c24.901 0 45 20.099 45 45 0 24.899-20.099 45-45 45z" fill="#ff9100" />
        <path d="m271 256c0 8.399-6.599 15-15 15s-15-6.601-15-15c0-8.401 6.599-15 15-15s15 6.599 15 15z"/>
        <path d="m271 256c0 8.399-6.599 15-15 15v-30c8.401 0 15 6.599 15 15z"/>
    </g>
</svg>