<svg xmlns="http://www.w3.org/2000/svg" width="267.326" height="275" viewBox="0 0 267.326 275">
  <path id="path3259" d="M442.606,391.989V347.152H388.625c-42.33,0-53.52.806-51.847,3.736,18.729,32.8,42.426,54.827,70.424,65.466l14.48,5.5v-53.78H402.253c-22.522,0-22.091-.492-10.462,11.957,8.071,8.64,8.967,8.97,8.967,3.305,0-4.3,1.893-6.294,5.978-6.294,5.264,0,5.978,1.993,5.978,16.684v16.684l-11.209-6.747C379.8,390.6,373.785,385.491,364.9,372.57c-12.621-18.343-13.061-18.072,29.137-17.975l38.111.087.437,39.957.437,39.957-14.431-1.709c-34.835-4.126-80.315-42.975-97.907-83.634-7.294-16.859-8.571-16.478,55.418-16.529,70.892-.057,66.508.174,66.508-3.507,0-1.9-23.415-2.989-64.266-2.989-49.253,0-64.34-.873-64.58-3.736-1.205-14.343-1.423-43.247-.348-46.332.987-2.833,16.828-3.736,65.5-3.736,48.851,0,63.908-.863,62.991-3.612-.89-2.671-17.376-3.6-63.28-3.561l-62.076.051,1.746-8.728c7.068-35.341,67.452-89.28,103.392-92.357l10.462-.9.435,39.606c.306,27.843-.582,39.712-2.989,39.964-16.217,1.694-73.669.719-73.669-1.25,0-1.383,4.038-8.384,8.974-15.558,8.889-12.92,14.9-18.028,36.61-31.094l11.209-6.747v16.684c0,17-9.977,25.853-12.5,11.082-.822-4.823-2.293-4.2-10.58,4.484l-9.625,10.085h41.669V176.8l-15.327,5.824c-22.571,8.576-37.921,20.344-52.723,40.417-23.05,31.26-26.5,28.463,35.064,28.463h53.909V206.663c0-42.844.266-44.837,5.978-44.837s5.978,1.993,5.978,44.837V251.5h52.31c28.77,0,52.31-1.122,52.31-2.494,0-2.752-22.2-35.146-27.838-40.612-10.2-9.9-27.285-20.742-40.735-25.852L475.487,176.8v53.78h39.977l-8.779-9.187c-6.744-7.057-9-8.1-9.746-4.484-2.812,13.684-12.485,4.532-12.485-11.814V188.575l8.22,4.419c17.065,9.173,25.39,16.3,36.808,31.492,6.471,8.612,11.766,16.559,11.766,17.659s-17.15,1.962-38.111,1.916l-38.111-.085-.832-41.072-.832-41.072,11.294,1.78c40,6.305,99.344,60.328,103.116,93.866l.841,7.473H516.587c-47.627,0-62.025.867-62.025,3.736s14.184,3.736,60.957,3.736c46.086,0,61.272.912,62.246,3.736,1.1,3.181.944,26.92-.289,44.837-.33,4.8-5.408,5.231-61.637,5.231-38.859,0-61.277,1.094-61.277,2.989,0,3.567-3.662,3.375,67.971,3.552l57.509.142-1.789,7.868c-8.732,38.4-64.775,88.628-105.092,94.2l-9.8,1.354.83-40.827.83-40.827,38.111-.085c20.961-.047,38.111.714,38.111,1.69,0,9.344-29.54,39.423-48.573,49.461l-8.22,4.335V393.561c0-14.524.721-16.517,5.978-16.517,3.321,0,5.978,1.993,5.978,4.484,0,6.681,3.663,5.192,11.437-4.649l6.953-8.8H475.486v53.756l12.7-5c29.436-11.579,70.992-50.909,70.992-67.189,0-1.371-23.539-2.494-52.31-2.494h-52.31v44.837c0,42.844-.266,44.837-5.978,44.837s-5.978-1.993-5.978-44.837Zm0-82.2c0-3.822-8.066-4.484-54.658-4.484-52.666,0-54.658-.218-54.658-5.978s1.993-5.978,54.658-5.978c42.026,0,54.658-.872,54.658-3.774s-13.461-3.764-59.035-3.731l-59.035.043-.911,14.193-.911,14.193H382.66c51.293,0,59.946-.647,59.946-4.484Zm124.96-9.708-.911-14.192-56.046-.046c-42.622-.035-56.046.841-56.046,3.659,0,2.772,12.915,3.912,51.28,4.524,46.191.737,51.356,1.337,52.045,6.049.7,4.811-3.414,5.231-51.28,5.231-44.27,0-52.045.67-52.045,4.484s8.321,4.484,56.957,4.484h56.957l-.911-14.192Z" transform="translate(-312.718 -161.826)" fill="#54b3f1"/>
</svg>
