<?xml version="1.0" encoding="iso-8859-1"?>
<!-- Generator: Adobe Illustrator 19.0.0, SVG Export Plug-In . SVG Version: 6.00 Build 0)  -->
<svg version="1.1" id="Capa_1" xmlns="http://www.w3.org/2000/svg" xmlns:xlink="http://www.w3.org/1999/xlink" x="0px" y="0px"
	 viewBox="0 0 58.986 58.986" style="enable-background:new 0 0 58.986 58.986;" xml:space="preserve">
<g fill="#F19C31">
	<path d="M57.22,32.522c-2.077-7.549-7.112-9.155-9.929-9.44c-3.219-0.327-6.313,1.366-7.882,4.243
		c-2.838,5.205-8.339,7.654-11.111,8.598c-0.792-0.8-1.695-1.523-2.698-2.16c2.758-3.222,3.739-8.035,2.494-12.542
		c-1.502-5.437-6.639-9.234-12.493-9.234l-0.287,0.003c-3.674,0.078-6.621,1.101-8.759,3.039C6.066,15.471,5.96,16.204,6.3,16.768
		l2.562,4.272c0.459,0.762,1.641,0.857,2.227,0.186c1.174-1.343,2.872-2.144,4.542-2.144c1.295,0,2.559,0.459,3.754,1.366
		c0.865,0.656,1.513,1.555,1.822,2.531c1.032,3.264-0.577,6.702-3.588,7.663c-1.568,0.501-2.622,1.971-2.622,3.733
		c0,1.859,1.364,3.464,3.245,3.816c3.983,0.746,6.66,3.413,6.66,6.635c0,3.814-5.551,7.161-8.905,7.161
		c-3.339,0-8.051-4.792-12.927-13.148l-0.659-0.996l-1.403,0.577l-0.013,0.657c-0.115,6.237,1.96,11.997,5.694,15.801
		c2.602,2.65,5.807,4.11,9.024,4.11c8.979,0,16.283-6.353,16.283-14.161c0-0.897-0.09-1.779-0.268-2.631
		c3.959-1.504,10.284-4.825,13.908-11.473c0.197-0.36,0.512-0.62,0.94-0.581c1.161,0.117,2.818,0.687,3.803,4.263
		c1.006,3.66,0.555,7.686-1.239,11.044c-1.216,2.277-2.534,3.431-3.911,3.432c-0.02,0-1.963-0.037-3.092-1.146
		c-0.235-0.231-4.768-4.099-6.592-4.658l-0.209-0.054h-0.15c-0.635,0-1.156,0.478-1.214,1.115c-0.104,1.178-0.18,5.285,3.188,8.653
		c3.025,3.026,7.208,3.184,8.106,3.184c0.001,0,0.003,0,0.004,0c2.87,0,6.957-1.247,10.127-7.185
		C58.04,43.844,58.704,37.915,57.22,32.522z"/>
	<path d="M35.061,20.23c0.599,0.072,1.203,0.109,1.795,0.109c4.416,0,8.777-1.97,12.961-5.856c0.432-0.401,0.675-0.949,0.687-1.542
		c0.011-0.594-0.225-1.176-0.645-1.596l-2.563-2.563c-0.799-0.8-2.185-0.838-3.012-0.079c-2.911,2.677-5.684,3.89-8.239,3.588
		c-4.094-0.478-8.899-3.282-10.275-4.13l-0.329-0.175h-0.283c-0.365,0-0.714,0.176-0.932,0.469
		c-0.219,0.293-0.285,0.678-0.179,1.033C24.743,11.78,27.593,19.329,35.061,20.23z"/>
	<path d="M35.952,11.057c0.279,0.279,0.65,0.432,1.045,0.432s0.766-0.153,1.046-0.433l4.273-4.274
		c0.574-0.576,0.574-1.513-0.001-2.09l-4.273-4.274c-0.559-0.558-1.53-0.559-2.091,0.001l-4.273,4.274
		c-0.574,0.576-0.574,1.513,0.001,2.09L35.952,11.057z"/>
</g>
</svg>
