<svg xmlns="http://www.w3.org/2000/svg" width="45" height="123.347" viewBox="0 0 45 123.347">
  <g id="Group_482" data-name="Group 482" transform="translate(1958 -1077.7)">
    <path id="Path_31" data-name="Path 31" d="M224.7,21.763l11.33-7.105.022-11.036A3.613,3.613,0,0,0,231.407.152l-11.325,3.38a3.612,3.612,0,0,0-2.58,3.45l-.027,7.675,7.227,7.105" transform="translate(-2162.256 1077.7)" fill="yellow"/>
    <path id="Path_33" data-name="Path 33" d="M207.605,86.227s-10.694,10.668-21.656,10.668c-11.524,0-23.344-10.668-23.344-10.668-.009-.1,12.824-21.7,13.207-22.328l.012-3.06h18.557l0,2.975C194.554,64.111,207.605,86.213,207.605,86.227Z" transform="translate(-2120.605 1031.517)" fill="#a4a4a4"/>
    <path id="Path_35" data-name="Path 35" d="M201.585,241.2c-.385,4.746-4.77,8.326-10.2,8.326H178.828c-5.43,0-9.815-3.58-10.2-8.326,0,0-6.025-74.96-6.023-74.977h45C207.61,166.251,201.585,241.2,201.585,241.2Z" transform="translate(-2120.605 951.524)" fill="yellow"/>
  </g>
</svg>
