<svg xmlns="http://www.w3.org/2000/svg" width="40" height="38.333" viewBox="0 0 40 38.333">
  <g id="Group_4247" data-name="Group 4247" transform="translate(-1289 -3126)">
    <path id="Path_21076" data-name="Path 21076" d="M4.167,224A4.172,4.172,0,0,0,0,228.167V241.5a4.172,4.172,0,0,0,4.167,4.167h5a4.137,4.137,0,0,0,2.5-.843V224Z" transform="translate(1289 2918.667)" fill="#44a4ec"/>
    <path id="Path_21077" data-name="Path 21077" d="M197.334,33.584a3.7,3.7,0,0,0-1.085-2.623,4.138,4.138,0,0,0,1.067-3.182A4.308,4.308,0,0,0,192.969,24H182.674A23.963,23.963,0,0,0,184,17.334c0-3.615-3.072-6.667-5-6.667a5.242,5.242,0,0,0-3.022,1.015.837.837,0,0,0-.312.652v5.652l-4.8,10.4-.2.1V46.349a10.92,10.92,0,0,0,4.167.985h15.3a3.834,3.834,0,0,0,3.777-2.912,3.749,3.749,0,0,0-.3-2.5,3.733,3.733,0,0,0,1.668-5A3.731,3.731,0,0,0,197.334,33.584Z" transform="translate(1131.666 3115.333)" fill="#ffcf99"/>
  </g>
</svg>
